<svg width="184" height="171" xmlns="http://www.w3.org/2000/svg" xmlns:xlink="http://www.w3.org/1999/xlink" overflow="hidden"><defs><clipPath id="clip0"><rect x="335" y="251" width="184" height="171"/></clipPath><clipPath id="clip1"><rect x="336" y="251" width="182" height="171"/></clipPath><clipPath id="clip2"><rect x="336" y="250" width="182" height="172"/></clipPath><clipPath id="clip3"><rect x="336" y="244" width="182" height="185"/></clipPath></defs><g clip-path="url(#clip0)" transform="translate(-335 -251)"><g clip-path="url(#clip1)"><g clip-path="url(#clip2)"><g clip-path="url(#clip3)"><path d="M164.938 91 136.5 91 136.5 68.25C136.5 55.702 146.702 45.5 159.25 45.5L162.094 45.5C166.821 45.5 170.625 41.6965 170.625 36.9688L170.625 19.9063C170.625 15.1785 166.821 11.375 162.094 11.375L159.25 11.375C127.827 11.375 102.375 36.8266 102.375 68.25L102.375 153.563C102.375 162.982 110.018 170.625 119.438 170.625L164.938 170.625C174.357 170.625 182 162.982 182 153.563L182 108.063C182 98.6426 174.357 91 164.938 91ZM62.5625 91 34.125 91 34.125 68.25C34.125 55.702 44.327 45.5 56.875 45.5L59.7188 45.5C64.4465 45.5 68.25 41.6965 68.25 36.9688L68.25 19.9063C68.25 15.1785 64.4465 11.375 59.7188 11.375L56.875 11.375C25.4516 11.375 0 36.8266 0 68.25L0 153.563C0 162.982 7.64258 170.625 17.0625 170.625L62.5625 170.625C71.9824 170.625 79.625 162.982 79.625 153.563L79.625 108.063C79.625 98.6426 71.9824 91 62.5625 91Z" fill="#5F6E8B" transform="matrix(-1 -8.74228e-08 8.80054e-08 -1.00666 518 428.106)"/></g></g></g></g></svg>