<svg width="178" height="166" xmlns="http://www.w3.org/2000/svg" xmlns:xlink="http://www.w3.org/1999/xlink" overflow="hidden"><defs><clipPath id="clip0"><rect x="135" y="251" width="178" height="166"/></clipPath><clipPath id="clip1"><rect x="135" y="251" width="177" height="165"/></clipPath><clipPath id="clip2"><rect x="135" y="251" width="177" height="166"/></clipPath><clipPath id="clip3"><rect x="135" y="245" width="177" height="177"/></clipPath></defs><g clip-path="url(#clip0)" transform="translate(-135 -251)"><g clip-path="url(#clip1)"><g clip-path="url(#clip2)"><g clip-path="url(#clip3)"><path d="M159.5 11 115.5 11C106.391 11 99 18.3906 99 27.5L99 71.5C99 80.6094 106.391 88 115.5 88L143 88 143 110C143 122.134 133.134 132 121 132L118.25 132C113.678 132 110 135.678 110 140.25L110 156.75C110 161.322 113.678 165 118.25 165L121 165C151.387 165 176 140.387 176 110L176 27.5C176 18.3906 168.609 11 159.5 11ZM60.5 11 16.5 11C7.39063 11 0 18.3906 0 27.5L0 71.5C0 80.6094 7.39063 88 16.5 88L44 88 44 110C44 122.134 34.1344 132 22 132L19.25 132C14.6781 132 11 135.678 11 140.25L11 156.75C11 161.322 14.6781 165 19.25 165L22 165C52.3875 165 77 140.387 77 110L77 27.5C77 18.3906 69.6094 11 60.5 11Z" fill="#5F6E8B" transform="matrix(-1 -8.74228e-08 8.76097e-08 -1.00214 312 421.688)"/></g></g></g></g></svg>