<svg viewBox="0 0 576 512" xmlns="http://www.w3.org/2000/svg" xmlns:xlink="http://www.w3.org/1999/xlink" overflow="hidden"><path d="M402.6 83.2 492.8 173.4C496.6 177.2 496.6 183.4 492.8 187.2L274.4 405.6 181.6 415.9C169.2 417.3 158.7 406.8 160.1 394.4L170.4 301.6 388.8 83.2C392.6 79.4 398.8 79.4 402.6 83.2ZM564.6 60.3 515.8 11.5C500.6-3.7 475.9-3.7 460.6 11.5L425.2 46.9C421.4 50.7 421.4 56.9 425.2 60.7L515.4 150.9C519.2 154.7 525.4 154.7 529.2 150.9L564.6 115.5C579.8 100.2 579.8 75.5 564.6 60.3ZM384 346.2 384 448 64 448 64 128 293.8 128C297 128 300 126.7 302.3 124.5L342.3 84.5C349.9 76.9 344.5 64 333.8 64L48 64C21.5 64 0 85.5 0 112L0 464C0 490.5 21.5 512 48 512L400 512C426.5 512 448 490.5 448 464L448 306.2C448 295.5 435.1 290.2 427.5 297.7L387.5 337.7C385.3 340 384 343 384 346.2Z" fill="#8D8D9A"/></svg>