<svg viewBox="0 0 307.308 307.308" xmlns="http://www.w3.org/2000/svg" xmlns:xlink="http://www.w3.org/1999/xlink" id="Capa_1" overflow="hidden"><g id="_x31_1-DSLR_Camera"><path d="M284.909 66.146 203.564 66.146 187.138 38.551C185.531 35.853 182.624 34.2 179.484 34.2L127.822 34.2C124.682 34.2 121.774 35.853 120.168 38.551L103.742 66.146 77.049 66.146 77.049 60.064C77.049 55.145 73.061 51.157 68.142 51.157L35.185 51.157C30.265 51.157 26.278 55.145 26.278 60.064L26.278 66.146 22.398 66.146C10.027 66.146 0 76.174 0 88.543L0 250.709C0 263.079 10.027 273.107 22.397 273.107L284.909 273.107C297.279 273.107 307.307 263.079 307.307 250.709L307.307 88.543C307.308 76.174 297.279 66.146 284.909 66.146ZM153.653 233.379C118.443 233.379 89.9 204.836 89.9 169.625 89.9 134.416 118.443 105.872 153.653 105.872 188.863 105.872 217.406 134.416 217.406 169.625 217.406 204.836 188.863 233.379 153.653 233.379ZM270.935 112.322 243.025 112.322C238.106 112.322 234.118 108.334 234.118 103.414 234.118 98.494 238.106 94.506 243.025 94.506L270.935 94.506C275.856 94.506 279.843 98.494 279.843 103.414 279.843 108.334 275.855 112.322 270.935 112.322Z" fill="#5F6E8B"/><circle cx="153.653" cy="169.625" r="44.538" fill="#5F6E8B"/></g><g></g><g></g><g></g><g></g><g></g><g></g><g></g><g></g><g></g><g></g><g></g><g></g><g></g><g></g><g></g></svg>