<svg width="512" height="512" viewBox="0 0 24 24" xmlns="http://www.w3.org/2000/svg" xmlns:xlink="http://www.w3.org/1999/xlink" overflow="hidden"><path d="M8.75 17.612 8.75 22.25C8.75 22.574 8.958 22.861 9.266 22.963 9.343 22.988 9.422 23 9.5 23 9.734 23 9.96 22.89 10.104 22.694L12.817 19.002Z" fill="#667AFF"/><path d="M23.685 0.139C23.455-0.024 23.153-0.046 22.903 0.085L0.403 11.835C0.137 11.974-0.02 12.258 0.002 12.557 0.025 12.857 0.224 13.113 0.507 13.21L6.762 15.348 20.083 3.958 9.775 16.377 20.258 19.96C20.336 19.986 20.418 20 20.5 20 20.636 20 20.771 19.963 20.89 19.891 21.08 19.775 21.209 19.58 21.242 19.361L23.992 0.861C24.033 0.581 23.915 0.303 23.685 0.139Z" fill="#667AFF"/></svg>