<svg width="909.333" height="909.333" viewBox="-21 -47 682.667 682" xmlns="http://www.w3.org/2000/svg" xmlns:xlink="http://www.w3.org/1999/xlink" overflow="hidden"><path d="M552.012-1.33203 87.9883-1.33203C39.4727-1.33203-2.84217e-14 38.1328-2.84217e-14 86.6563L-2.84217e-14 370.629C-2.84217e-14 419.043 39.3008 458.445 87.6758 458.617L87.6758 587.48 272.867 458.617 552.012 458.617C600.527 458.617 640 419.145 640 370.629L640 86.6563C640 38.1328 600.527-1.33203 552.012-1.33203ZM602.5 370.629C602.5 398.465 579.852 421.117 552.012 421.117L261.102 421.117 125.176 515.703 125.176 421.117 87.9883 421.117C60.1484 421.117 37.5 398.465 37.5 370.629L37.5 86.6563C37.5 58.8125 60.1484 36.168 87.9883 36.168L552.012 36.168C579.852 36.168 602.5 58.8125 602.5 86.6563Z" fill="#FFFFFF"/><path d="M171.293 131.172 468.707 131.172 468.707 168.672 171.293 168.672Z" fill="#FFFFFF"/><path d="M171.293 211.172 468.707 211.172 468.707 248.672 171.293 248.672Z" fill="#FFFFFF"/><path d="M171.293 291.172 468.707 291.172 468.707 328.672 171.293 328.672Z" fill="#FFFFFF"/></svg>