<svg width="512" height="512" viewBox="0 0 512 512" xmlns="http://www.w3.org/2000/svg" xmlns:xlink="http://www.w3.org/1999/xlink" id="Capa_1" overflow="hidden"><g><circle cx="256" cy="165" r="75" fill="#565E93"/><path d="M256 0C114.615 0 0 114.615 0 256 0 397.385 114.615 512 256 512 397.385 512 512 397.385 512 256 512 114.615 397.385 0 256 0ZM256 60C313.897 60 361 107.103 361 165 361 222.897 313.897 270 256 270 198.103 270 151 222.897 151 165 151 107.103 198.103 60 256 60ZM426.454 352.802C391.636 413.99 326.322 452 256 452 185.678 452 120.364 413.99 85.546 352.802L80.24 343.477 87.35 335.442C107.284 312.918 135.951 300 166 300L346 300C376.049 300 404.716 312.918 424.649 335.443L431.759 343.478Z" fill="#565E93"/><path d="M166 330C148.196 330 131.069 336.353 117.617 347.705 148.239 393.803 200.264 422 256 422 311.736 422 363.761 393.803 394.383 347.705 380.931 336.353 363.804 330 346 330Z" fill="#565E93"/></g></svg>